<svg xmlns="http://www.w3.org/2000/svg" viewBox="0 0 59.63 44.7"><defs><style>.cls-1{fill:#fff;}</style></defs><title>Asset 3</title><g id="Layer_2" data-name="Layer 2"><g id="Capa_1" data-name="Capa 1"><path id="_Compound_Path_" data-name="&lt;Compound Path&gt;" class="cls-1" d="M0,27.59a38,38,0,0,1,.92-3.83A14.42,14.42,0,0,1,8,15.62l.51-.27a25.94,25.94,0,0,1-1.64-2.58,8.81,8.81,0,0,1,2-10.39A8.93,8.93,0,0,1,19.36,1.19a1,1,0,0,1,.53,1.4,1,1,0,0,1-1.46.35,8,8,0,0,0-3-.94A7,7,0,0,0,8,7.81a6.86,6.86,0,0,0,5.43,7.88,12.43,12.43,0,0,0,3.16,0c.77-.07,1.3.12,1.42.73s-.23,1-1,1.22a8.78,8.78,0,0,1-6.11-.68,1.21,1.21,0,0,0-.91,0A12.57,12.57,0,0,0,2,28.44c-.1,1.74,0,3.49,0,5.28h9a18.67,18.67,0,0,1,3.46-9A18.9,18.9,0,0,1,22,18.6a11,11,0,0,1,.63-15.91,11.09,11.09,0,0,1,14.26-.11,11,11,0,0,1,.79,16A19.14,19.14,0,0,1,48.58,33.73h9c0-.92,0-1.83,0-2.73a18.61,18.61,0,0,0-.57-5.94,12.64,12.64,0,0,0-7.58-8.21,1.11,1.11,0,0,0-.81.06,8.73,8.73,0,0,1-6,.7c-.83-.2-1.19-.6-1.07-1.23s.64-.87,1.47-.69A6.95,6.95,0,0,0,49.51,3.92a6.89,6.89,0,0,0-7.87-1.21A6.81,6.81,0,0,1,41,3a1,1,0,0,1-1.24-.44.93.93,0,0,1,.39-1.3,12.09,12.09,0,0,1,2.35-1,8.83,8.83,0,0,1,10,4.15A8.85,8.85,0,0,1,51.26,15l-.23.28c.8.49,1.61.93,2.35,1.47a14.51,14.51,0,0,1,6.2,11.56c.09,2.07,0,4.15,0,6.23,0,.88-.35,1.24-1.23,1.24h-9.7c0,.26,0,.48,0,.7q0,3.46,0,6.93c0,1-.33,1.32-1.33,1.32H12.24c-1,0-1.3-.34-1.31-1.29,0-2.52,0-5,0-7.66h-.7c-3,0-5.94,0-8.91,0A1.32,1.32,0,0,1,0,35ZM46.67,42.7c0-.18,0-.31,0-.45,0-2.21.08-4.43,0-6.64-.3-7.2-3.74-12.33-10.28-15.4a1,1,0,0,0-1.06.08,9.89,9.89,0,0,1-4.19,1.46,10.65,10.65,0,0,1-6.92-1.47,1,1,0,0,0-.73-.14A16.16,16.16,0,0,0,17.72,24a16.76,16.76,0,0,0-4.81,12.11c0,2,0,4,0,6v.62ZM29.73,19.86a8.94,8.94,0,1,0-8.87-9A9,9,0,0,0,29.73,19.86Z"/></g></g></svg>