<svg xmlns="http://www.w3.org/2000/svg" viewBox="0 0 146.15 78.6"><defs><style>.cls-1{fill:#cf1143;}.cls-2{fill:#fff;}.cls-3{fill:#ec691d;}.cls-3,.cls-4{fill-rule:evenodd;}.cls-4,.cls-5{fill:#231f20;}</style></defs><title>Asset 3</title><g id="Layer_2" data-name="Layer 2"><g id="Capa_1" data-name="Capa 1"><g id="_Group_" data-name="&lt;Group&gt;"><g id="_Group_2" data-name="&lt;Group&gt;"><g id="_Group_3" data-name="&lt;Group&gt;"><path id="_Path_" data-name="&lt;Path&gt;" class="cls-1" d="M54,48.54c0-1.82,0-4.35-3.38-4.35-2.66,0-3.5,1.85-3.5,4.19V64.51h-7v-16c0-1.82,0-4.35-3.39-4.35-2.66,0-3.5,1.85-3.5,4.19V64.51h-7v-25H33v3h.1a7.06,7.06,0,0,1,6.53-3.62,6.75,6.75,0,0,1,6.5,3.56,7.31,7.31,0,0,1,6.22-3.56c4.69,0,8.36,2.75,8.36,8V62.11a14.18,14.18,0,0,0,4.45-11.89h0L61.57,40,54.3,19h-.06v0L40.61,16.36,21.74,12.72l0,0h0L8.86,27.58,0,37.77v0l0,0L7.16,58.4l3.69,10.68h0c7.67,11.84,22.74,4.05,32.46,6.46l.11-.15h0l0,0h0l.18,0c3.24-4.17,9.4-7.05,14.31-10.9H54Z"/><path id="_Path_2" data-name="&lt;Path&gt;" class="cls-2" d="M60.69,62.11V47c0-5.28-3.66-8-8.36-8a7.31,7.31,0,0,0-6.22,3.56,6.75,6.75,0,0,0-6.5-3.56,7.06,7.06,0,0,0-6.53,3.62H33v-3H26.22v25h7V48.39c0-2.34.85-4.19,3.5-4.19,3.39,0,3.39,2.53,3.39,4.35v16h7V48.39c0-2.34.85-4.19,3.5-4.19C54,44.19,54,46.73,54,48.54v16H58A28.36,28.36,0,0,0,60.69,62.11Z"/></g><path id="_Compound_Path_" data-name="&lt;Compound Path&gt;" class="cls-3" d="M68.09,11.15l2.08-1.84L68.33,7.2l1.08-2.26L67,4.27l-.39-2.74L63.73,2,62.4,0l-2,1.82L58,.76,57.25,3.3l-2.63.31.58,2.64-2.1,1.53L55,10l-1.11,2.13,2.64.89.21,2.52,2.56-.64,1.6,2.16,2.26-1.82,2.12,1.05.85-2.47,2.56-.37Zm-10.57-3a4.13,4.13,0,1,1,3.74,4.48,4.27,4.27,0,0,1-.82-.16A4.13,4.13,0,0,1,57.52,8.17Z"/><g id="_Group_4" data-name="&lt;Group&gt;"><path id="_Compound_Path_2" data-name="&lt;Compound Path&gt;" class="cls-4" d="M136.65,69.57h.92V68.32h-.92Zm0,8.84h.84V71.15h-.84Z"/><path id="_Path_3" data-name="&lt;Path&gt;" class="cls-5" d="M122,74.5a3.77,3.77,0,0,1,.18-1.37,2.12,2.12,0,0,1,2-1.42c1.35,0,1.88.66,1.88,2V78.4h.84V73.66a2.75,2.75,0,0,0-.36-1.67,2.52,2.52,0,0,0-2.21-1,3.07,3.07,0,0,0-2.34,1.2v-1h-.84V78.4H122V74.5"/><path id="_Path_4" data-name="&lt;Path&gt;" class="cls-5" d="M134.83,73.43a2.72,2.72,0,0,0-3-2.48c-2.17,0-3.34,1.82-3.34,3.84s1,3.81,3.34,3.81a3,3,0,0,0,3.12-2.7H134a2.12,2.12,0,0,1-2.23,1.95c-1.74,0-2.44-1.53-2.44-3.05s.71-3.08,2.44-3.08A2.13,2.13,0,0,1,134,73.43h.85"/><polyline id="_Path_5" data-name="&lt;Path&gt;" class="cls-5" points="98.09 78.4 99.03 78.4 101.85 71.15 100.94 71.15 98.58 77.37 96.23 71.15 95.32 71.15 98.09 78.4"/><path id="_Compound_Path_3" data-name="&lt;Compound Path&gt;" class="cls-4" d="M104.6,74.33c-1.69.22-2.53,1-2.53,2.18a2.16,2.16,0,0,0,2.42,2.09,3.55,3.55,0,0,0,2.7-1.2c0,.5.11,1,.67,1.08a1.74,1.74,0,0,0,.38,0,2.29,2.29,0,0,0,.66-.14v-.66c-.71.25-.88.1-.88-.56V73.21c0-1.68-1.16-2.26-2.63-2.26s-2.86.69-3,2.39h.85c.15-1.26,1-1.64,2.11-1.64s1.81.62,1.81,1.47c0,.25,0,.63-.31.76a4.17,4.17,0,0,1-1.11.24l-1.16.15m2.58,1.4c0,1.47-1.31,2.12-2.65,2.12-.8,0-1.57-.42-1.57-1.3s.77-1.44,2-1.54a6.89,6.89,0,0,0,2.17-.41Z"/><path id="_Compound_Path_4" data-name="&lt;Compound Path&gt;" class="cls-4" d="M119.44,75c0-2.6-1.2-4-3.19-4s-3.34,1.74-3.34,3.85,1,3.8,3.34,3.8a3,3,0,0,0,3.13-2.42h-.94a2.13,2.13,0,0,1-2.2,1.67c-1.61,0-2.45-1.3-2.44-2.87h5.63m-5.63-.7c.17-1.37,1-2.56,2.44-2.56a2.29,2.29,0,0,1,2.29,2.56Z"/><path id="_Compound_Path_5" data-name="&lt;Compound Path&gt;" class="cls-4" d="M141.84,74.33c-1.69.22-2.53,1-2.53,2.18a2.16,2.16,0,0,0,2.42,2.09,3.56,3.56,0,0,0,2.71-1.2c0,.5.11,1,.67,1.08a1.74,1.74,0,0,0,.38,0,2.31,2.31,0,0,0,.66-.14v-.66c-.72.25-.88.1-.88-.56V73.21c0-1.68-1.16-2.26-2.63-2.26s-2.86.69-3,2.39h.86c.15-1.26,1-1.64,2.11-1.64s1.81.62,1.81,1.47c0,.25,0,.63-.31.76a4.16,4.16,0,0,1-1.11.24l-1.16.15m2.58,1.4c0,1.47-1.32,2.12-2.65,2.12-.8,0-1.57-.42-1.57-1.3s.77-1.44,2-1.54a6.93,6.93,0,0,0,2.17-.41Z"/><rect id="_Path_6" data-name="&lt;Path&gt;" class="cls-5" x="110.31" y="68.32" width="0.84" height="10.09"/></g><path id="_Path_7" data-name="&lt;Path&gt;" class="cls-5" d="M108,64.48h6V52.61c0-2.53.86-5.44,5.53-5.44a11.21,11.21,0,0,1,1.72.09V41.16a11,11,0,0,0-1.16-.08c-3.64,0-5,2.23-6.26,4.54h-.09V41.68H108v22.8"/><path id="_Path_8" data-name="&lt;Path&gt;" class="cls-5" d="M100.13,35.51h-6v6.17H91V46h3.08V59.8c0,3,.94,4.93,6.13,4.93H101c.94,0,1.89,0,2.83-.09V60.1a12.37,12.37,0,0,1-1.24.09c-2.45,0-2.48-.52-2.48-1.84V46h3.72V41.68h-3.72V35.51"/><path id="_Compound_Path_6" data-name="&lt;Compound Path&gt;" class="cls-4" d="M73.31,50.81c.34-3,1.84-4.8,4.67-4.8,1.93,0,4.29,1.11,4.63,4.8h-9.3m9,7a3.86,3.86,0,0,1-3.86,2.49c-4.84,0-5.18-3.86-5.35-5.57H88.78V53.63c0-10.41-6.21-12.55-10.71-12.55-10,0-10.92,8.78-10.92,11.52,0,9.39,4.93,12.47,11.35,12.47,3.9,0,8.44-1.8,10-7.28Z"/><path id="_Compound_Path_7" data-name="&lt;Compound Path&gt;" class="cls-4" d="M140,53.08c0,2.91-.86,6.94-5.48,6.94S129,56,129,53.08s.86-6.94,5.49-6.94,5.48,4,5.48,6.94m6.17,0c0-8.23-5.53-12-11.66-12s-11.66,3.77-11.66,12,5.53,12,11.66,12S146.15,61.31,146.15,53.08Z"/></g></g></g></g></svg>