<svg xmlns="http://www.w3.org/2000/svg" viewBox="0 0 51.51 52.44"><defs><style>.cls-1{fill:#fff;}</style></defs><title>Asset 3</title><g id="Layer_2" data-name="Layer 2"><g id="Capa_1" data-name="Capa 1"><g id="_Group_" data-name="&lt;Group&gt;"><path id="_Compound_Path_" data-name="&lt;Compound Path&gt;" class="cls-1" d="M33,48.14H18.55a2.25,2.25,0,0,1-2.25-2.25V18.11a2.25,2.25,0,0,1,2.25-2.25h4.76l.18.47c.08.2.16.41.24.62a37,37,0,0,0,2.38,4.6,51.24,51.24,0,0,0,6.74,9.11h0a4.68,4.68,0,0,0,1.61,1.13l.27.11.47.17V45.89A2.25,2.25,0,0,1,33,48.14ZM18.55,17.31a.8.8,0,0,0-.8.8V45.89a.8.8,0,0,0,.8.8H33a.8.8,0,0,0,.8-.8V33.06a6.09,6.09,0,0,1-2-1.42,52.66,52.66,0,0,1-6.93-9.36A38.22,38.22,0,0,1,22.4,17.5l-.08-.19Z"/><path id="_Compound_Path_2" data-name="&lt;Compound Path&gt;" class="cls-1" d="M12.76,47.77a1.49,1.49,0,0,1-.56-.11L1.62,43.5A2.56,2.56,0,0,1,0,41.11V12.74A1.54,1.54,0,0,1,2.11,11.3l10.55,4.15a2.55,2.55,0,0,1,1.62,2.39V46.25a1.51,1.51,0,0,1-1.51,1.51ZM2.15,42.15l10.59,4.16.09-.06V17.84a1.12,1.12,0,0,0-.71-1L1.58,12.65a.1.1,0,0,0-.13.09V41.11A1.12,1.12,0,0,0,2.15,42.15Z"/><path id="_Compound_Path_3" data-name="&lt;Compound Path&gt;" class="cls-1" d="M50,52.44a1.54,1.54,0,0,1-.56-.11L38.86,48.18a2.55,2.55,0,0,1-1.63-2.39V32.14l.49-.16c.15-.05.3-.1.45-.16A4.85,4.85,0,0,0,39.8,30.7a46.73,46.73,0,0,0,6-7.66h0c.71-1.13,1.29-2.1,1.83-3.12l.3-.57,2,.78a2.55,2.55,0,0,1,1.63,2.39V50.9A1.54,1.54,0,0,1,50,52.44ZM38.68,33.17V45.8a1.12,1.12,0,0,0,.71,1L49.93,51A.09.09,0,0,0,50,51a.09.09,0,0,0,0-.08V22.52a1.12,1.12,0,0,0-.71-1l-.79-.31c-.47.85-1,1.69-1.57,2.64h0a48.2,48.2,0,0,1-6.16,7.9,6.28,6.28,0,0,1-2.08,1.44Z"/><path id="_Compound_Path_4" data-name="&lt;Compound Path&gt;" class="cls-1" d="M34.62,29A2.35,2.35,0,0,0,38,29.1L38,29a44.55,44.55,0,0,0,5.66-7.26c.53-.85,1.07-1.74,1.58-2.66a16.48,16.48,0,0,0,2.4-7.74,11.36,11.36,0,1,0-22.72,0,12.85,12.85,0,0,0,1.25,5.23,38.36,38.36,0,0,0,2,3.73,48.38,48.38,0,0,0,6.28,8.53l.13.13ZM32.75,16.58a6.62,6.62,0,1,1,3.52,1,6.49,6.49,0,0,1-2-.32,6.15,6.15,0,0,1-1.49-.7Zm0,0"/></g></g></g></svg>