<svg xmlns="http://www.w3.org/2000/svg" viewBox="0 0 44.49 51.72"><defs><style>.cls-1{fill:none;}.cls-2{fill:#fff;}</style></defs><title>Asset 2</title><g id="Layer_2" data-name="Layer 2"><g id="Capa_1" data-name="Capa 1"><g id="_Group_" data-name="&lt;Group&gt;"><path id="_Path_" data-name="&lt;Path&gt;" class="cls-1" d="M13.07,8.89c6.81,0,11.15-2.07,11.16-3.49S19.88,1.91,13.07,1.91,1.91,4,1.91,5.4,6.25,8.89,13.07,8.89Z"/><path id="_Path_2" data-name="&lt;Path&gt;" class="cls-1" d="M13.06,22.52A26.59,26.59,0,0,1,3.92,21a10.65,10.65,0,0,1-2-1V23c0,1.42,4.34,3.49,11.16,3.49a24.05,24.05,0,0,0,8.45-1.34l.64-.27c1.15-.53,1.82-1.11,2-1.64,0,0,0,0,0-.07a.9.9,0,0,0,.05-.18v-2.9a10.39,10.39,0,0,1-2,1A26.66,26.66,0,0,1,13.06,22.52Z"/><path id="_Path_3" data-name="&lt;Path&gt;" class="cls-1" d="M1.9,31.67v2.95c0,1.42,4.34,3.49,11.16,3.49a28.82,28.82,0,0,0,5.28-.46V33.72a32,32,0,0,1-5.28.44C8.8,34.16,4.35,33.29,1.9,31.67Z"/><path id="_Path_4" data-name="&lt;Path&gt;" class="cls-1" d="M3.91,19A15.4,15.4,0,0,0,7.1,20a28,28,0,0,0,6,.6,28,28,0,0,0,6-.6A15.27,15.27,0,0,0,22.26,19c1.26-.6,2-1.27,2-1.84v-2.9c-2.42,1.61-6.81,2.44-11.16,2.44S4.35,15.8,1.9,14.17v2.95C1.9,17.7,2.62,18.37,3.91,19Z"/><path id="_Path_5" data-name="&lt;Path&gt;" class="cls-1" d="M1.9,25.88v2.88c0,1.42,4.34,3.49,11.16,3.49a28.82,28.82,0,0,0,5.28-.46v-3a2.65,2.65,0,0,1,.14-.82,31.73,31.73,0,0,1-5.42.46C8.79,28.38,4.35,27.52,1.9,25.88Z"/><path id="_Path_6" data-name="&lt;Path&gt;" class="cls-1" d="M13.06,14.75c6.82,0,11.16-2.07,11.16-3.49V8.36C21.8,10,17.41,10.8,13.06,10.8S4.35,9.94,1.9,8.31v2.95C1.9,12.68,6.25,14.75,13.06,14.75Z"/><path id="_Path_7" data-name="&lt;Path&gt;" class="cls-1" d="M13.06,40C8.8,40,4.35,39.15,1.9,37.53v2.95C1.9,41.9,6.25,44,13.06,44a28.82,28.82,0,0,0,5.28-.46V39.58A32,32,0,0,1,13.06,40Z"/><path id="_Path_8" data-name="&lt;Path&gt;" class="cls-1" d="M31.42,25.25a28.82,28.82,0,0,0-5.28.46c-.69.13-1.34.28-1.92.45-.32.09-.63.19-.92.29a12.5,12.5,0,0,1-1.36.58c-1.09.57-1.69,1.18-1.69,1.71s.71,1.25,2,1.85a16.35,16.35,0,0,0,3.88,1.17,28.82,28.82,0,0,0,5.28.46c6.81,0,11.15-2.07,11.16-3.49S38.23,25.25,31.42,25.25Z"/><path id="_Path_9" data-name="&lt;Path&gt;" class="cls-1" d="M26.14,39.55q-1-.17-1.92-.41a17.94,17.94,0,0,1-1.92-.6,10.69,10.69,0,0,1-2.06-1v2.95c0,.57.72,1.25,2,1.86a14.06,14.06,0,0,0,2.35.83,26.86,26.86,0,0,0,6.8.8c6.82,0,11.16-2.07,11.16-3.49v-2.9C40.14,39.16,35.76,40,31.41,40A31.05,31.05,0,0,1,26.14,39.55Z"/><path id="_Path_10" data-name="&lt;Path&gt;" class="cls-1" d="M22.31,44.39a10.7,10.7,0,0,1-2.06-1v2.95c0,1.42,4.34,3.49,11.16,3.49s11.16-2.07,11.16-3.49v-2.9c-2.42,1.61-6.81,2.44-11.16,2.44A26.69,26.69,0,0,1,22.31,44.39Z"/><path id="_Path_11" data-name="&lt;Path&gt;" class="cls-1" d="M26.14,33.69q-1-.17-1.92-.41a17.94,17.94,0,0,1-1.92-.6,10.69,10.69,0,0,1-2.06-1V34.6c0,.57.72,1.25,2,1.86a16.38,16.38,0,0,0,3.89,1.17,28.83,28.83,0,0,0,5.27.46c6.82,0,11.16-2.07,11.16-3.49V31.7c-2.42,1.61-6.81,2.44-11.16,2.44A31.05,31.05,0,0,1,26.14,33.69Z"/><path id="_Compound_Path_" data-name="&lt;Compound Path&gt;" class="cls-2" d="M31.42,23.34a31.19,31.19,0,0,0-5.28.45V5.4c0-3.55-6.58-5.4-13.07-5.4C6.73,0,0,1.89,0,5.4V40.48c0,3.51,6.73,5.4,13.07,5.4a32.08,32.08,0,0,0,5.28-.43v.87c0,3.51,6.73,5.4,13.07,5.4,6.49,0,13.07-1.86,13.07-5.4V28.74C44.49,25.19,37.91,23.34,31.42,23.34ZM13.07,1.91C19.88,1.91,24.23,4,24.23,5.4S19.88,8.89,13.07,8.89,1.91,6.82,1.91,5.4,6.25,1.91,13.07,1.91ZM1.9,8.31C4.35,9.94,8.8,10.8,13.06,10.8S21.8,10,24.22,8.36v2.9c0,1.42-4.34,3.49-11.16,3.49S1.9,12.68,1.9,11.26Zm0,5.86c2.45,1.63,6.9,2.49,11.16,2.49s8.73-.84,11.16-2.44v2.9c0,.57-.7,1.24-2,1.84A15.27,15.27,0,0,1,19,20a28,28,0,0,1-6,.6,28,28,0,0,1-6-.6,15.4,15.4,0,0,1-3.19-1c-1.29-.61-2-1.28-2-1.86ZM18.35,43.5a28.82,28.82,0,0,1-5.28.46C6.25,44,1.9,41.9,1.9,40.48V37.53C4.35,39.15,8.8,40,13.06,40a32,32,0,0,0,5.28-.44Zm0-5.86a28.82,28.82,0,0,1-5.28.46C6.25,38.11,1.9,36,1.9,34.62V31.67c2.45,1.63,6.9,2.49,11.16,2.49a32,32,0,0,0,5.28-.44Zm0-8.9v3a28.82,28.82,0,0,1-5.28.46c-6.82,0-11.16-2.07-11.16-3.49V25.88c2.45,1.64,6.89,2.5,11.17,2.5a31.73,31.73,0,0,0,5.42-.46A2.65,2.65,0,0,0,18.35,28.74Zm-5.28-2.27C6.25,26.47,1.9,24.4,1.9,23V20a10.65,10.65,0,0,0,2,1,26.59,26.59,0,0,0,9.14,1.48,26.66,26.66,0,0,0,9.2-1.46,10.39,10.39,0,0,0,2-1V23a.9.9,0,0,1-.05.18s0,0,0,.07c-.17.53-.85,1.11-2,1.64l-.64.27A24.05,24.05,0,0,1,13.06,26.47Zm29.5,19.85c0,1.42-4.34,3.49-11.16,3.49s-11.16-2.07-11.16-3.49V43.37a10.7,10.7,0,0,0,2.06,1,26.69,26.69,0,0,0,9.1,1.46c4.35,0,8.73-.84,11.16-2.44Zm0-5.86c0,1.42-4.34,3.49-11.16,3.49a26.86,26.86,0,0,1-6.8-.8,14.06,14.06,0,0,1-2.35-.83c-1.29-.61-2-1.28-2-1.86V37.51a10.69,10.69,0,0,0,2.06,1,17.94,17.94,0,0,0,1.92.6q.92.24,1.92.41a31.05,31.05,0,0,0,5.27.45c4.35,0,8.73-.84,11.16-2.44Zm0-5.86c0,1.42-4.34,3.49-11.16,3.49a28.83,28.83,0,0,1-5.27-.46,16.38,16.38,0,0,1-3.89-1.17c-1.29-.61-2-1.28-2-1.86V31.65a10.69,10.69,0,0,0,2.06,1,17.94,17.94,0,0,0,1.92.6q.92.24,1.92.41a31.05,31.05,0,0,0,5.27.45c4.35,0,8.73-.84,11.16-2.44ZM31.42,32.23a28.82,28.82,0,0,1-5.28-.46,16.35,16.35,0,0,1-3.88-1.17c-1.29-.6-2-1.28-2-1.85s.6-1.14,1.69-1.71a12.5,12.5,0,0,0,1.36-.58c.29-.1.59-.2.92-.29.58-.17,1.23-.32,1.92-.45a28.82,28.82,0,0,1,5.28-.46c6.81,0,11.16,2.07,11.16,3.49S38.22,32.23,31.42,32.23Z"/></g></g></g></svg>