<svg xmlns="http://www.w3.org/2000/svg" viewBox="0 0 48.99 48.97"><defs><style>.cls-1{fill:#fff;}</style></defs><title>Asset 4</title><g id="Layer_2" data-name="Layer 2"><g id="Capa_1" data-name="Capa 1"><g id="_Group_" data-name="&lt;Group&gt;"><path id="_Compound_Path_" data-name="&lt;Compound Path&gt;" class="cls-1" d="M15.52,26H6.88A1.36,1.36,0,0,0,5.53,27.4v5.83a1.36,1.36,0,0,0,1.36,1.36h8.64a1.36,1.36,0,0,0,1.36-1.36V27.4A1.36,1.36,0,0,0,15.52,26Zm-.73,6.47"/><rect id="_Path_" data-name="&lt;Path&gt;" class="cls-1" x="16.78" y="39.8" width="20.42" height="2.09"/><path id="_Compound_Path_2" data-name="&lt;Compound Path&gt;" class="cls-1" d="M44.17,0H11a4.85,4.85,0,0,0-4.8,4.8V19.07H4.8A4.85,4.85,0,0,0,0,23.86V44.17A4.85,4.85,0,0,0,4.8,49H39a4.87,4.87,0,0,0,4.8-4.9V29.9h.42A4.87,4.87,0,0,0,49,25V4.8A4.88,4.88,0,0,0,44.17,0ZM11,2.09H44.17A2.76,2.76,0,0,1,46.88,4.8V6.89H8.29V4.8A2.76,2.76,0,0,1,11,2.09Zm30.67,42A2.76,2.76,0,0,1,39,46.78H4.8a2.76,2.76,0,0,1-2.71-2.71V23.85A2.76,2.76,0,0,1,4.8,21.15H39a2.76,2.76,0,0,1,2.71,2.71V44.07Zm2.5-16.25h-.42v-4a4.85,4.85,0,0,0-4.8-4.8H8.29V9H46.88V25.11a2.76,2.76,0,0,1-2.71,2.71Zm0,0"/></g></g></g></svg>