<svg xmlns="http://www.w3.org/2000/svg" viewBox="0 0 36.43 49.78"><defs><style>.cls-1{fill:#fff;}</style></defs><title>Asset 1</title><g id="Layer_2" data-name="Layer 2"><g id="Capa_1" data-name="Capa 1"><g id="_Group_" data-name="&lt;Group&gt;"><path id="_Compound_Path_" data-name="&lt;Compound Path&gt;" class="cls-1" d="M36.2,48.42l-5.05-5.05a5.78,5.78,0,0,0,5-6.07L34.58,6a6.44,6.44,0,0,0-6.36-6h-20A6.44,6.44,0,0,0,1.85,6L.27,37.3a5.78,5.78,0,0,0,5,6.07L.23,48.42a.79.79,0,0,0,.56,1.36H35.64a.79.79,0,0,0,.56-1.36Zm-7.25-5L30.54,45H5.89l1.59-1.59Zm-27.1-6L3.44,6.12A4.83,4.83,0,0,1,8.21,1.59h20A4.83,4.83,0,0,1,33,6.12l1.58,31.26a4.2,4.2,0,0,1-4.23,4.45H6.09a4.2,4.2,0,0,1-4.23-4.45Zm.86,10.81L4.3,46.6H32.13l1.59,1.59Zm0,0"/><path id="_Compound_Path_2" data-name="&lt;Compound Path&gt;" class="cls-1" d="M11.86,5.3H24.57a.79.79,0,0,0,0-1.59H11.86a.79.79,0,0,0,0,1.59Zm0,0"/><path id="_Compound_Path_3" data-name="&lt;Compound Path&gt;" class="cls-1" d="M28.47,21.46a.79.79,0,0,0-.79-.79H8.75a.79.79,0,0,0,0,1.59H27.68a.79.79,0,0,0,.79-.79Zm0,0"/><path id="_Compound_Path_4" data-name="&lt;Compound Path&gt;" class="cls-1" d="M5.12,31.2h7.39a.79.79,0,0,0,.79-.79,5.5,5.5,0,0,0-5.5-5.5H6.2L7,9H29.43l.81,15.9H28.62a5.5,5.5,0,0,0-5.5,5.5.79.79,0,0,0,.79.79h7.39a.79.79,0,0,0,.79-.83l-.24-4.69v0L31,8.17a.79.79,0,0,0-.79-.75H6.25a.79.79,0,0,0-.79.75L4.57,25.65v0l-.24,4.69a.79.79,0,0,0,.79.83Zm25.35-1.59H24.79a3.92,3.92,0,0,1,3.83-3.11h1.69ZM6.12,26.49H7.81a3.92,3.92,0,0,1,3.83,3.11H6Zm0,0"/><path id="_Compound_Path_5" data-name="&lt;Compound Path&gt;" class="cls-1" d="M15.69,29.61a.79.79,0,0,0,0,1.59h5a.79.79,0,1,0,0-1.59Zm0,0"/><path id="_Compound_Path_6" data-name="&lt;Compound Path&gt;" class="cls-1" d="M33,37.34a.79.79,0,0,0-.79-.79H4.25a.79.79,0,0,0,0,1.59H32.18a.79.79,0,0,0,.79-.79Zm0,0"/></g></g></g></svg>