<svg xmlns="http://www.w3.org/2000/svg" viewBox="0 0 19.08 36"><defs><style>.cls-1{fill:#fff;}</style></defs><title>Asset 4</title><g id="Layer_2" data-name="Layer 2"><g id="Capa_1" data-name="Capa 1"><g id="_Group_" data-name="&lt;Group&gt;"><g id="_Group_2" data-name="&lt;Group&gt;"><path id="_Path_" data-name="&lt;Path&gt;" class="cls-1" d="M6.73,35.62l4.55-4.55a1.2,1.2,0,0,0,.09-1.64,1.16,1.16,0,0,0-1.68,0L7.62,31.45A.37.37,0,0,1,7,31.19V23.76a1.2,1.2,0,0,0-1.1-1.22,1.16,1.16,0,0,0-1.22,1.16v7.5a.37.37,0,0,1-.63.26l-2-2a1.2,1.2,0,0,0-1.64-.09A1.16,1.16,0,0,0,.34,31l4.59,4.59A1.27,1.27,0,0,0,6.73,35.62Z"/><path id="_Path_2" data-name="&lt;Path&gt;" class="cls-1" d="M7,19.39V18.06a1.16,1.16,0,1,0-2.32,0v1.34a1.16,1.16,0,0,0,2.32,0Z"/><path id="_Path_3" data-name="&lt;Path&gt;" class="cls-1" d="M7,14.1V14a1.16,1.16,0,0,0-2.32,0v.13A1.16,1.16,0,0,0,7,14.1Z"/></g><g id="_Group_3" data-name="&lt;Group&gt;"><path id="_Path_4" data-name="&lt;Path&gt;" class="cls-1" d="M12.34.37,7.8,4.92a1.2,1.2,0,0,0-.09,1.64,1.16,1.16,0,0,0,1.68,0l2.06-2.06a.37.37,0,0,1,.63.26v7.43a1.2,1.2,0,0,0,1.1,1.22A1.16,1.16,0,0,0,14.4,12.3V4.81A.37.37,0,0,1,15,4.55l2,2a1.2,1.2,0,0,0,1.64.09,1.16,1.16,0,0,0,0-1.68L14.14.37A1.27,1.27,0,0,0,12.34.37Z"/><path id="_Path_5" data-name="&lt;Path&gt;" class="cls-1" d="M12.08,16.6v1.34a1.16,1.16,0,1,0,2.32,0V16.6a1.16,1.16,0,0,0-2.32,0Z"/><path id="_Path_6" data-name="&lt;Path&gt;" class="cls-1" d="M12.08,21.9V22a1.16,1.16,0,0,0,2.32,0V21.9a1.16,1.16,0,0,0-2.32,0Z"/></g></g></g></g></svg>