<svg xmlns="http://www.w3.org/2000/svg" viewBox="0 0 16.04 67.71"><defs><style>.cls-1{fill:#fff;}</style></defs><title>Asset 5</title><g id="Layer_2" data-name="Layer 2"><g id="Capa_1" data-name="Capa 1"><g id="_Group_" data-name="&lt;Group&gt;"><path id="_Compound_Path_" data-name="&lt;Compound Path&gt;" class="cls-1" d="M6.81,67.17a1.66,1.66,0,0,0,2.36.08l.06-.06a31.45,31.45,0,0,0,4-5.13c.37-.6.76-1.23,1.11-1.87A11.63,11.63,0,0,0,16,54.73a8,8,0,1,0-16,0,9.07,9.07,0,0,0,.88,3.69,27.08,27.08,0,0,0,1.4,2.64,34.15,34.15,0,0,0,4.43,6l.09.09ZM5.49,58.42A4.67,4.67,0,1,1,8,59.14a4.58,4.58,0,0,1-1.43-.23,4.34,4.34,0,0,1-1.05-.49Zm0,0"/><path id="_Compound_Path_2" data-name="&lt;Compound Path&gt;" class="cls-1" d="M8,0a8,8,0,1,0,8,8A8,8,0,0,0,8,0ZM8,12.67A4.65,4.65,0,1,1,12.63,8,4.65,4.65,0,0,1,8,12.67Z"/><circle id="_Path_" data-name="&lt;Path&gt;" class="cls-1" cx="8.02" cy="30.6" r="1.86"/><circle id="_Path_2" data-name="&lt;Path&gt;" class="cls-1" cx="8.02" cy="23.06" r="1.86"/><circle id="_Path_3" data-name="&lt;Path&gt;" class="cls-1" cx="8.02" cy="38.14" r="1.86"/></g></g></g></svg>