<?xml version="1.0" encoding="UTF-8" standalone="no"?>
<svg
   xmlns:dc="http://purl.org/dc/elements/1.1/"
   xmlns:cc="http://creativecommons.org/ns#"
   xmlns:rdf="http://www.w3.org/1999/02/22-rdf-syntax-ns#"
   xmlns:svg="http://www.w3.org/2000/svg"
   xmlns="http://www.w3.org/2000/svg"
   viewBox="0 0 95.096123 124.50537"
   height="124.50537"
   width="95.096123"
   xml:space="preserve"
   version="1.1"
   id="svg2"><metadata
     id="metadata8"><rdf:RDF><cc:Work
         rdf:about=""><dc:format>image/svg+xml</dc:format><dc:type
           rdf:resource="http://purl.org/dc/dcmitype/StillImage" /></cc:Work></rdf:RDF></metadata><defs
     id="defs6"><clipPath
       id="clipPath16"
       clipPathUnits="userSpaceOnUse"><path
         id="path18"
         d="m 0,99.604 76.077,0 L 76.077,0 0,0 0,99.604 Z" /></clipPath></defs><g
     transform="matrix(1.25,0,0,-1.25,0,124.50537)"
     id="g10"><g
       id="g12"><g
         clip-path="url(#clipPath16)"
         id="g14"><g
           transform="translate(26.0457,44.0793)"
           id="g20"><path
             id="path22"
             style="fill:#d0254a;fill-opacity:1;fill-rule:nonzero;stroke:none"
             d="m 0,0 c -6.164,3.909 -10.232,10.795 -10.232,18.614 -0.017,12.169 9.862,22.048 22.031,22.048 12.168,0 22.049,-9.879 22.049,-22.048 0,-8.33 -4.632,-15.586 -11.447,-19.336 -1.55,-0.846 -3.206,-1.515 -4.967,-1.973 -1.796,-0.476 -3.68,-0.722 -5.635,-0.722 -2.377,0 -4.649,0.37 -6.797,1.075 C 3.223,-1.796 1.549,-0.986 0,0 m 6.252,-41.543 c 1.585,-1.691 3.68,-2.536 5.776,-2.536 1.937,0 3.875,0.722 5.406,2.149 0.106,0.087 0.194,0.193 0.3,0.281 7.132,7.414 13.507,15.585 18.967,24.32 1.778,2.836 3.591,5.812 5.283,8.893 4.437,8.083 8.047,16.889 8.047,25.922 0,21.01 -17.029,38.039 -38.038,38.039 -21.01,0 -38.039,-17.029 -38.039,-38.039 0,-6.163 1.726,-11.974 4.192,-17.521 1.92,-4.315 4.297,-8.471 6.657,-12.504 5.97,-10.196 12.961,-19.9 21.026,-28.564 0.123,-0.123 0.282,-0.281 0.423,-0.44" /></g></g></g></g></svg>