<?xml version="1.0" encoding="UTF-8" standalone="no"?>
<svg
   xmlns:dc="http://purl.org/dc/elements/1.1/"
   xmlns:cc="http://creativecommons.org/ns#"
   xmlns:rdf="http://www.w3.org/1999/02/22-rdf-syntax-ns#"
   xmlns:svg="http://www.w3.org/2000/svg"
   xmlns="http://www.w3.org/2000/svg"
   viewBox="0 0 124.59175 124.50537"
   height="124.50537"
   width="124.59175"
   xml:space="preserve"
   version="1.1"
   id="svg2"><metadata
     id="metadata8"><rdf:RDF><cc:Work
         rdf:about=""><dc:format>image/svg+xml</dc:format><dc:type
           rdf:resource="http://purl.org/dc/dcmitype/StillImage" /></cc:Work></rdf:RDF></metadata><defs
     id="defs6"><clipPath
       id="clipPath16"
       clipPathUnits="userSpaceOnUse"><path
         id="path18"
         d="m 0,99.604 99.673,0 L 99.673,0 0,0 0,99.604 Z" /></clipPath></defs><g
     transform="matrix(1.25,0,0,-1.25,0,124.50537)"
     id="g10"><g
       id="g12"><g
         clip-path="url(#clipPath16)"
         id="g14"><g
           transform="translate(49.5947,20.9467)"
           id="g20"><path
             id="path22"
             style="fill:#d0254a;fill-opacity:1;fill-rule:nonzero;stroke:none"
             d="m 0,0 c -15.936,0 -28.855,12.919 -28.855,28.855 0,15.937 12.919,28.856 28.855,28.856 15.937,0 28.855,-12.919 28.855,-28.856 C 28.855,12.919 15.937,0 0,0 m 0.242,78.658 c -27.464,0 -49.802,-22.341 -49.802,-49.803 0,-27.461 22.338,-49.802 49.802,-49.802 27.454,0 49.802,22.341 49.802,49.802 0,27.462 -22.348,49.803 -49.802,49.803" /></g></g></g></g></svg>