<svg xmlns="http://www.w3.org/2000/svg" viewBox="0 0 30.71 29.73"><defs><style>.cls-1{fill:#cf1143;fill-rule:evenodd;}.cls-2{fill:#fff;}</style></defs><title>Asset 2</title><g id="Layer_2" data-name="Layer 2"><g id="Capa_1" data-name="Capa 1"><g id="_Group_" data-name="&lt;Group&gt;"><path id="_Compound_Path_" data-name="&lt;Compound Path&gt;" class="cls-1" d="M29,12.86,25.57,3h0v0L19.12,1.71,10.24,0V0h0l-6,7L0,11.8H0l0,0,3.37,9.68,1.74,5h0c3.61,5.58,10.71,1.91,15.28,3l.05-.07h0l.09,0c2.89-3.72,10.73-5.24,10.11-11.86h0Z"/><path id="_Compound_Path_2" data-name="&lt;Compound Path&gt;" class="cls-2" d="M11.22,15.43l7.13,7.13a.8.8,0,0,0,1.13-1.13l-6.57-6.56L19.48,8.3a.8.8,0,1,0-1.13-1.13L11.22,14.3a.81.81,0,0,0,0,1.13Zm0,0"/></g></g></g></svg>