<svg xmlns="http://www.w3.org/2000/svg" viewBox="0 0 137.6 35.72"><defs><style>.cls-1{fill:#cf1143;}.cls-2{fill:#fff;}.cls-3{fill:#ec691d;}.cls-3,.cls-4{fill-rule:evenodd;}.cls-4,.cls-5{fill:#231f20;}</style></defs><title>Asset 1</title><g id="Layer_2" data-name="Layer 2"><g id="Capa_1" data-name="Capa 1"><g id="_Group_" data-name="&lt;Group&gt;"><g id="_Group_2" data-name="&lt;Group&gt;"><path id="_Path_" data-name="&lt;Path&gt;" class="cls-1" d="M25.45,22.86c0-.86,0-2-1.59-2-1.25,0-1.65.87-1.65,2v7.59H18.9V22.86c0-.86,0-2-1.59-2-1.25,0-1.65.87-1.65,2v7.59H12.35V18.63h3.19V20h0a3.33,3.33,0,0,1,3.07-1.7A3.18,3.18,0,0,1,21.71,20a3.44,3.44,0,0,1,2.93-1.68,3.61,3.61,0,0,1,3.93,3.78v7.13a6.67,6.67,0,0,0,2.09-5.6h0L29,18.85l-3.42-9.9h0v0L19.12,7.7,10.24,6V6h0l-6,7L0,17.79H0l0,0L3.37,27.5l1.74,5h0c3.61,5.58,10.71,1.91,15.28,3l.05-.07h0l.09,0c1.52-2,4.42-3.32,6.74-5.13H25.45Z"/><path id="_Path_2" data-name="&lt;Path&gt;" class="cls-2" d="M28.58,29.25V22.12a3.61,3.61,0,0,0-3.93-3.78A3.44,3.44,0,0,0,21.71,20a3.18,3.18,0,0,0-3.06-1.68A3.33,3.33,0,0,0,15.58,20h0V18.63H12.35V30.37h3.31V22.78c0-1.1.4-2,1.65-2,1.59,0,1.59,1.19,1.59,2v7.52h3.31V22.78c0-1.1.4-2,1.65-2,1.59,0,1.59,1.19,1.59,2v7.52H27.3A13.35,13.35,0,0,0,28.58,29.25Z"/></g><path id="_Compound_Path_" data-name="&lt;Compound Path&gt;" class="cls-3" d="M32.06,5.25l1-.87-.87-1,.51-1.07L31.53,2,31.34.72,30,1l-.62-1-.94.86L27.33.36,27,1.55l-1.24.14L26,2.94l-1,.72.88,1.06-.52,1,1.24.42.1,1.18L27.9,7l.75,1,1.06-.85,1,.5.4-1.16,1.2-.17Zm-5-1.4A1.94,1.94,0,1,1,28.85,6a2,2,0,0,1-.39-.07A1.94,1.94,0,0,1,27.08,3.85Z"/><g id="_Group_3" data-name="&lt;Group&gt;"><path id="_Compound_Path_2" data-name="&lt;Compound Path&gt;" class="cls-4" d="M124.89,18.55h1.24V16.88h-1.24Zm.06,11.83h1.12V20.67h-1.12Z"/><path id="_Path_3" data-name="&lt;Path&gt;" class="cls-5" d="M105.27,25.15a5.05,5.05,0,0,1,.24-1.84,2.84,2.84,0,0,1,2.7-1.89c1.8,0,2.51.88,2.51,2.62v6.34h1.12V24a3.69,3.69,0,0,0-.49-2.23,3.38,3.38,0,0,0-3-1.39A4.1,4.1,0,0,0,105.27,22V20.67h-1.12v9.71h1.12V25.15"/><path id="_Path_4" data-name="&lt;Path&gt;" class="cls-5" d="M122.45,23.72c-.34-2.25-1.8-3.32-4-3.32-2.91,0-4.46,2.44-4.46,5.13,0,2.87,1.37,5.1,4.46,5.1A4,4,0,0,0,122.6,27h-1.2a2.84,2.84,0,0,1-3,2.61c-2.33,0-3.26-2-3.26-4.09s1-4.12,3.26-4.12a2.84,2.84,0,0,1,2.89,2.3h1.14"/><polyline id="_Path_5" data-name="&lt;Path&gt;" class="cls-5" points="73.29 30.38 74.54 30.38 78.31 20.67 77.09 20.67 73.94 28.99 70.79 20.67 69.58 20.67 73.29 30.38"/><path id="_Compound_Path_3" data-name="&lt;Compound Path&gt;" class="cls-4" d="M82,24.93c-2.27.3-3.39,1.29-3.39,2.92,0,1.87,1.54,2.79,3.24,2.79A4.76,4.76,0,0,0,85.46,29c0,.67.15,1.33.9,1.44a2.33,2.33,0,0,0,.51.06,3.07,3.07,0,0,0,.88-.19v-.88c-1,.34-1.18.13-1.18-.75V23.43c0-2.25-1.56-3-3.53-3-2.12,0-3.83.92-4,3.21h1.14c.21-1.69,1.28-2.19,2.83-2.19,1.74,0,2.42.82,2.42,2,0,.34,0,.84-.41,1a5.58,5.58,0,0,1-1.48.32L82,24.93m3.45,1.87c0,2-1.76,2.83-3.54,2.83-1.07,0-2.1-.56-2.1-1.74s1-1.93,2.74-2.06a9.23,9.23,0,0,0,2.9-.54Z"/><path id="_Compound_Path_4" data-name="&lt;Compound Path&gt;" class="cls-4" d="M101.87,25.79c0-3.49-1.61-5.38-4.27-5.38s-4.46,2.32-4.46,5.15,1.35,5.08,4.46,5.08a4.06,4.06,0,0,0,4.2-3.24h-1.25a2.85,2.85,0,0,1-2.94,2.23c-2.16,0-3.28-1.74-3.27-3.84h7.54m-7.54-.94c.23-1.84,1.28-3.43,3.27-3.43s3.07,1.54,3.07,3.43Z"/><path id="_Compound_Path_5" data-name="&lt;Compound Path&gt;" class="cls-4" d="M131.85,24.93c-2.27.3-3.39,1.29-3.39,2.92,0,1.87,1.54,2.79,3.24,2.79A4.77,4.77,0,0,0,135.32,29c0,.67.15,1.33.9,1.44a2.33,2.33,0,0,0,.51.06,3.09,3.09,0,0,0,.88-.19v-.88c-1,.34-1.18.13-1.18-.75V23.43c0-2.25-1.55-3-3.52-3-2.12,0-3.82.92-4,3.21H130c.21-1.69,1.27-2.19,2.83-2.19,1.74,0,2.42.82,2.42,2,0,.34,0,.84-.41,1a5.57,5.57,0,0,1-1.48.32l-1.56.21m3.45,1.87c0,2-1.76,2.83-3.54,2.83-1.07,0-2.1-.56-2.1-1.74s1-1.93,2.73-2.06a9.28,9.28,0,0,0,2.91-.54Z"/><rect id="_Path_6" data-name="&lt;Path&gt;" class="cls-5" x="89.64" y="16.88" width="1.12" height="13.5"/></g><path id="_Path_7" data-name="&lt;Path&gt;" class="cls-5" d="M50.88,30.36H53.7V24.77a2.28,2.28,0,0,1,2.6-2.56,5.28,5.28,0,0,1,.81,0V19.38a5.16,5.16,0,0,0-.55,0c-1.71,0-2.36,1-2.95,2.14h0V19.63h-2.7V30.36"/><path id="_Path_8" data-name="&lt;Path&gt;" class="cls-5" d="M47.15,16.72H44.32v2.91H42.87v2h1.45v6.52c0,1.39.44,2.32,2.88,2.32h.36c.44,0,.89,0,1.33,0V28.3a5.82,5.82,0,0,1-.58,0c-1.15,0-1.17-.24-1.17-.87V21.64H48.9v-2H47.15V16.72"/><path id="_Compound_Path_6" data-name="&lt;Compound Path&gt;" class="cls-4" d="M34.52,23.92c.16-1.41.87-2.26,2.2-2.26a2.17,2.17,0,0,1,2.18,2.26H34.52m4.26,3.29A1.82,1.82,0,0,1,37,28.38c-2.28,0-2.44-1.82-2.52-2.62H41.8v-.51c0-4.9-2.92-5.91-5-5.91-4.7,0-5.14,4.14-5.14,5.43,0,4.42,2.32,5.87,5.35,5.87a4.65,4.65,0,0,0,4.72-3.43Z"/><path id="_Compound_Path_7" data-name="&lt;Compound Path&gt;" class="cls-4" d="M65.91,25c0,1.37-.4,3.27-2.58,3.27s-2.58-1.9-2.58-3.27.4-3.27,2.58-3.27,2.58,1.9,2.58,3.27m2.91,0c0-3.88-2.6-5.65-5.49-5.65S57.84,21.12,57.84,25s2.6,5.65,5.49,5.65S68.81,28.87,68.81,25Z"/></g></g></g></svg>